<svg width="104" height="19" viewBox="0 0 104 19" fill="none" xmlns="http://www.w3.org/2000/svg">
<path d="M8.46654 0.67334H19.4538L11.376 12.6463H0.388672L8.46654 0.67334Z" fill="#0085FF"/>
<path d="M8.94769 13.756L5.81894 18.3934H17.3274L25.4053 6.42044H16.9113L11.9622 13.756H8.94769Z" fill="#0085FF"/>
<path d="M31.4058 1.87884H34.2354L39.1551 13.8914H39.3361L44.2558 1.87884H47.0854V17.3321H44.867V6.14962H44.7237L40.1662 17.3095H38.325L33.7675 6.14208H33.6242V17.3321H31.4058V1.87884Z" fill="black"/>
<path d="M53.667 17.5887C52.9326 17.5887 52.2686 17.4529 51.675 17.1812C51.0814 16.9045 50.6111 16.5046 50.264 15.9815C49.9219 15.4583 49.7509 14.8169 49.7509 14.0574C49.7509 13.4034 49.8767 12.8652 50.1282 12.4426C50.3797 12.0201 50.7192 11.6855 51.1468 11.4391C51.5744 11.1926 52.0523 11.0064 52.5805 10.8807C53.1087 10.7549 53.6469 10.6593 54.1952 10.594C54.8894 10.5135 55.4528 10.4481 55.8854 10.3978C56.318 10.3424 56.6324 10.2544 56.8286 10.1337C57.0248 10.0129 57.1229 9.81676 57.1229 9.54512V9.4923C57.1229 8.83332 56.9368 8.32274 56.5645 7.96056C56.1973 7.59837 55.649 7.41728 54.9196 7.41728C54.16 7.41728 53.5614 7.58579 53.1237 7.92283C52.6911 8.25483 52.3918 8.62456 52.2258 9.03202L50.1055 8.54911C50.3571 7.84486 50.7243 7.27643 51.2072 6.84381C51.6951 6.40617 52.256 6.08926 52.8898 5.89307C53.5237 5.69186 54.1902 5.59125 54.8894 5.59125C55.3522 5.59125 55.8427 5.64659 56.3608 5.75726C56.8839 5.86289 57.3719 6.05908 57.8246 6.34581C58.2824 6.63254 58.6572 7.04251 58.9489 7.57573C59.2407 8.10392 59.3866 8.79057 59.3866 9.63567V17.3321H57.1833V15.7476H57.0927C56.9468 16.0393 56.728 16.3261 56.4362 16.6078C56.1445 16.8895 55.7697 17.1234 55.312 17.3095C54.8542 17.4956 54.3059 17.5887 53.667 17.5887ZM54.1575 15.7777C54.7813 15.7777 55.3145 15.6545 55.7571 15.408C56.2049 15.1615 56.5444 14.8396 56.7758 14.4422C57.0122 14.0398 57.1304 13.6097 57.1304 13.1519V11.6579C57.05 11.7384 56.894 11.8138 56.6626 11.8842C56.4362 11.9496 56.1772 12.0075 55.8854 12.0578C55.5937 12.1031 55.3094 12.1458 55.0328 12.1861C54.7561 12.2213 54.5247 12.2515 54.3386 12.2766C53.9009 12.3319 53.501 12.425 53.1388 12.5558C52.7817 12.6866 52.495 12.8752 52.2787 13.1217C52.0674 13.3632 51.9617 13.6851 51.9617 14.0875C51.9617 14.6459 52.168 15.0685 52.5805 15.3552C52.993 15.6369 53.5186 15.7777 54.1575 15.7777Z" fill="black"/>
<path d="M62.3916 17.3321V5.74216H64.5571V7.62855H64.7005C64.942 6.98969 65.3369 6.49169 65.8852 6.13453C66.4335 5.77235 67.0899 5.59125 67.8545 5.59125C68.6292 5.59125 69.2781 5.77235 69.8013 6.13453C70.3295 6.49672 70.7193 6.99472 70.9709 7.62855H71.0916C71.3683 7.00982 71.8084 6.51684 72.4121 6.14962C73.0157 5.77738 73.735 5.59125 74.5701 5.59125C75.6214 5.59125 76.4791 5.92074 77.1431 6.57972C77.8122 7.2387 78.1467 8.23219 78.1467 9.56021V17.3321H75.8906V9.77149C75.8906 8.98675 75.6768 8.41832 75.2492 8.06619C74.8216 7.71407 74.311 7.538 73.7174 7.538C72.983 7.538 72.4121 7.76437 72.0046 8.2171C71.5971 8.66481 71.3934 9.24078 71.3934 9.94503V17.3321H69.1448V9.62812C69.1448 8.99933 68.9487 8.49377 68.5563 8.11147C68.1639 7.72916 67.6533 7.538 67.0245 7.538C66.597 7.538 66.2021 7.65119 65.8399 7.87755C65.4827 8.09889 65.1935 8.40826 64.9722 8.80566C64.7558 9.20306 64.6477 9.66333 64.6477 10.1865V17.3321H62.3916Z" fill="black"/>
<path d="M81.3516 17.3321V1.87884H83.6078V7.62101H83.7436C83.8744 7.37955 84.063 7.10036 84.3095 6.78345C84.556 6.46654 84.8981 6.18987 85.3357 5.95344C85.7733 5.71198 86.3518 5.59125 87.0712 5.59125C88.0068 5.59125 88.8419 5.82768 89.5763 6.30054C90.3107 6.77339 90.8867 7.455 91.3042 8.34538C91.7268 9.23575 91.938 10.3072 91.938 11.5598C91.938 12.8123 91.7293 13.8863 91.3118 14.7817C90.8942 15.6721 90.3208 16.3588 89.5914 16.8417C88.862 17.3196 88.0295 17.5585 87.0938 17.5585C86.3896 17.5585 85.8136 17.4403 85.3659 17.2039C84.9232 16.9674 84.5761 16.6908 84.3246 16.3738C84.0731 16.0569 83.8794 15.7752 83.7436 15.5287H83.5549V17.3321H81.3516ZM83.5625 11.5371C83.5625 12.3521 83.6807 13.0664 83.9171 13.6801C84.1536 14.2938 84.4956 14.7742 84.9433 15.1213C85.391 15.4633 85.9393 15.6344 86.5883 15.6344C87.2623 15.6344 87.8257 15.4558 88.2785 15.0986C88.7312 14.7365 89.0733 14.246 89.3047 13.6273C89.5411 13.0085 89.6593 12.3118 89.6593 11.5371C89.6593 10.7725 89.5436 10.0859 89.3122 9.47721C89.0858 8.86854 88.7438 8.38814 88.286 8.03601C87.8333 7.68389 87.2674 7.50782 86.5883 7.50782C85.9343 7.50782 85.381 7.67634 84.9282 8.01337C84.4805 8.35041 84.141 8.82075 83.9096 9.42439C83.6782 10.028 83.5625 10.7323 83.5625 11.5371Z" fill="black"/>
<path d="M97.8443 17.5887C97.1099 17.5887 96.4459 17.4529 95.8523 17.1812C95.2587 16.9045 94.7884 16.5046 94.4413 15.9815C94.0992 15.4583 93.9282 14.8169 93.9282 14.0574C93.9282 13.4034 94.0539 12.8652 94.3055 12.4426C94.557 12.0201 94.8965 11.6855 95.3241 11.4391C95.7517 11.1926 96.2296 11.0064 96.7578 10.8807C97.286 10.7549 97.8242 10.6593 98.3725 10.594C99.0667 10.5135 99.6301 10.4481 100.063 10.3978C100.495 10.3424 100.81 10.2544 101.006 10.1337C101.202 10.0129 101.3 9.81676 101.3 9.54512V9.4923C101.3 8.83332 101.114 8.32274 100.742 7.96056C100.375 7.59837 99.8263 7.41728 99.0969 7.41728C98.3373 7.41728 97.7387 7.58579 97.301 7.92283C96.8684 8.25483 96.5691 8.62456 96.4031 9.03202L94.2828 8.54911C94.5343 7.84486 94.9016 7.27643 95.3845 6.84381C95.8724 6.40617 96.4333 6.08926 97.0671 5.89307C97.701 5.69186 98.3675 5.59125 99.0667 5.59125C99.5295 5.59125 100.02 5.64659 100.538 5.75726C101.061 5.86289 101.549 6.05908 102.002 6.34581C102.46 6.63254 102.834 7.04251 103.126 7.57573C103.418 8.10392 103.564 8.79057 103.564 9.63567V17.3321H101.361V15.7476H101.27C101.124 16.0393 100.905 16.3261 100.614 16.6078C100.322 16.8895 99.947 17.1234 99.4893 17.3095C99.0315 17.4956 98.4832 17.5887 97.8443 17.5887ZM98.3348 15.7777C98.9585 15.7777 99.4918 15.6545 99.9344 15.408C100.382 15.1615 100.722 14.8396 100.953 14.4422C101.19 14.0398 101.308 13.6097 101.308 13.1519V11.6579C101.227 11.7384 101.071 11.8138 100.84 11.8842C100.614 11.9496 100.354 12.0075 100.063 12.0578C99.771 12.1031 99.4867 12.1458 99.2101 12.1861C98.9334 12.2213 98.702 12.2515 98.5159 12.2766C98.0782 12.3319 97.6783 12.425 97.3161 12.5558C96.959 12.6866 96.6722 12.8752 96.4559 13.1217C96.2447 13.3632 96.139 13.6851 96.139 14.0875C96.139 14.6459 96.3453 15.0685 96.7578 15.3552C97.1703 15.6369 97.6959 15.7777 98.3348 15.7777Z" fill="black"/>
</svg>
